<?xml version="1.0" encoding="utf-8"?>
<!-- Generator: Adobe Illustrator 27.0.0, SVG Export Plug-In . SVG Version: 6.00 Build 0)  -->
<svg version="1.1" id="Layer_1" xmlns="http://www.w3.org/2000/svg" xmlns:xlink="http://www.w3.org/1999/xlink" x="0px" y="0px"
	 viewBox="0 0 140 62.26" style="enable-background:new 0 0 140 62.26;" xml:space="preserve">
<style type="text/css">
	.st0{fill:#ED2447;}
	.st1{fill:#FFFFFF;}
</style>
<g>
	<g>
		<path class="st1" d="M49,25.86V0h10.09c3.42,0,6.17,1.24,8.25,3.71c2.07,2.47,3.11,5.64,3.11,9.49c0,4.46-1.37,7.85-4.12,10.16
			c-2,1.66-4.56,2.5-7.67,2.5H49z M54.25,21.34h4.05c2.39,0,4.12-0.69,5.21-2.08c1.09-1.39,1.63-3.41,1.63-6.06
			c0-2.65-0.57-4.77-1.72-6.35c-1.15-1.58-2.8-2.37-4.97-2.37h-4.2V21.34z"/>
		<path class="st1" d="M72.01,4.41V0h4.92v4.41H72.01z M72.01,25.86V7.31h4.92v18.55H72.01z"/>
		<path class="st1" d="M87.38,32.19c-2.51,0-4.52-0.51-6.02-1.52c-1.51-1.01-2.39-2.44-2.66-4.27h4.88c0.48,1.37,1.72,2.06,3.73,2.06
			c2.75,0,4.12-1.29,4.12-3.87v-2.03h-0.11c-1.28,1.45-2.89,2.17-4.85,2.17c-2.19,0-4.11-0.81-5.73-2.42
			c-1.63-1.61-2.44-3.76-2.44-6.44c0-2.75,0.75-4.95,2.24-6.6c1.49-1.65,3.42-2.48,5.79-2.48c2.24,0,3.95,0.82,5.14,2.46h0.07V7.31
			h4.74v17.14c0,2.41-0.74,4.29-2.21,5.64C92.57,31.49,90.34,32.19,87.38,32.19z M87.3,20.8c1.47,0,2.57-0.47,3.29-1.41
			c0.72-0.94,1.08-2.15,1.08-3.62c0-1.45-0.38-2.65-1.14-3.6c-0.76-0.95-1.85-1.43-3.27-1.43c-1.25,0-2.26,0.46-3.02,1.37
			c-0.76,0.92-1.14,2.15-1.14,3.69c0,1.57,0.38,2.79,1.14,3.67C85.01,20.36,86.03,20.8,87.3,20.8z"/>
		<path class="st1" d="M98.55,4.41V0h4.92v4.41H98.55z M98.55,25.86V7.31h4.92v18.55H98.55z"/>
		<path class="st1"  d="M104.67,10.56V7.31h2.57V1.52h4.81v5.79h3.18v3.26h-3.18v9.84c0,1.23,0.61,1.84,1.84,1.84l1.45-0.04v3.62
			c-0.75,0.05-1.77,0.07-3.07,0.07c-1.42,0-2.62-0.34-3.58-1.03c-0.96-0.69-1.45-1.83-1.45-3.42V10.56H104.67z"/>
		<path class="st1" d="M128.72,25.86c-0.24-0.31-0.43-1-0.58-2.06h-0.07c-0.53,0.8-1.21,1.41-2.03,1.84c-0.82,0.43-1.97,0.65-3.44,0.65
			c-1.95,0-3.52-0.49-4.7-1.48c-1.18-0.99-1.77-2.39-1.77-4.2c0-1.88,0.65-3.26,1.95-4.14c1.3-0.88,3.13-1.49,5.5-1.83
			c1.74-0.24,2.92-0.49,3.54-0.74c0.63-0.25,0.94-0.71,0.94-1.36c0-0.67-0.27-1.21-0.8-1.61c-0.53-0.4-1.3-0.6-2.31-0.6
			c-2.24,0-3.44,0.87-3.58,2.6H117c0.07-1.76,0.78-3.22,2.13-4.38c1.35-1.16,3.3-1.74,5.86-1.74c5.21,0,7.81,2.28,7.81,6.84v9.44
			c0,1.4,0.22,2.25,0.65,2.57v0.18H128.72z M123.8,22.86c1.35,0,2.42-0.35,3.2-1.05c0.78-0.7,1.18-1.53,1.18-2.5v-2.79
			c-0.53,0.31-1.68,0.68-3.44,1.09c-1.4,0.31-2.39,0.67-2.97,1.07c-0.58,0.4-0.87,1.01-0.87,1.83
			C120.9,22.07,121.87,22.86,123.8,22.86z"/>
		<path class="st1" d="M135.08,25.86V0H140v25.86H135.08z"/>
	</g>
	<g>
		<path class="st1" d="M56.79,61.69L49,34.93h5.54l3.48,13.29l1.16,5.84h0.07c0.45-2.22,0.86-4.12,1.24-5.69l2.92-13.44h5.24l2.92,13.4
			l1.24,5.73h0.07c0.52-2.37,0.96-4.33,1.31-5.88l3.37-13.25h5.35l-7.64,26.76h-5.05l-3.26-14.34l-0.94-4.75h-0.07
			c-0.27,1.87-0.56,3.46-0.86,4.75L61.8,61.69H56.79z"/>
		<path class="st1" d="M98.08,59.35c-1.87,1.93-4.28,2.9-7.22,2.9c-2.95,0-5.35-0.97-7.22-2.9c-1.87-1.93-2.81-4.35-2.81-7.24
			c0-2.89,0.94-5.31,2.81-7.24c1.87-1.93,4.28-2.9,7.22-2.9c2.94,0,5.35,0.97,7.22,2.9c1.87,1.93,2.81,4.35,2.81,7.24
			C100.88,55.01,99.95,57.42,98.08,59.35z M90.85,58.36c1.52,0,2.71-0.57,3.57-1.7c0.86-1.14,1.29-2.65,1.29-4.55
			c0-1.9-0.43-3.42-1.29-4.57c-0.86-1.15-2.05-1.72-3.57-1.72c-1.55,0-2.75,0.57-3.59,1.7c-0.85,1.14-1.27,2.66-1.27,4.59
			c0,1.9,0.42,3.41,1.27,4.55C88.11,57.79,89.3,58.36,90.85,58.36z"/>
		<path class="st1" d="M107.21,42.49v3.07h0.11c0.6-1.12,1.26-1.95,1.98-2.49c0.72-0.54,1.63-0.8,2.73-0.8c0.52,0,0.92,0.05,1.2,0.15v4.45h-0.11
			c-1.72-0.17-3.11,0.2-4.15,1.12c-1.05,0.92-1.57,2.37-1.57,4.34v9.36h-5.09v-19.2H107.21z"/>
		<path class="st1" d="M114.58,61.69V34.93h5.09v26.76H114.58z"/>
		<path class="st1" d="M129.29,62.26c-2.42,0-4.38-0.92-5.88-2.75c-1.5-1.83-2.25-4.3-2.25-7.39c0-2.99,0.77-5.43,2.3-7.32
			c1.53-1.88,3.5-2.83,5.9-2.83c2.4,0,4.2,0.95,5.43,2.84h0.11v-9.88H140v26.76h-4.9v-2.51h-0.07
			C133.77,61.23,131.86,62.26,129.29,62.26z M130.42,57.99c1.5,0,2.64-0.51,3.42-1.53c0.79-1.02,1.18-2.43,1.18-4.23
			c0-4.09-1.49-6.14-4.45-6.14c-1.37,0-2.42,0.55-3.14,1.65c-0.72,1.1-1.09,2.56-1.09,4.38c0,1.87,0.36,3.32,1.07,4.34
			C128.12,57.48,129.12,57.99,130.42,57.99z"/>
	</g>
	<g>
		<path class="st1" d="M32.75,27.17l1.87-5.38h1.13l1.9,5.38h-1.14l-0.36-1.14h-1.94l-0.35,1.14H32.75z M34.95,23.65l-0.48,1.55h1.42l-0.48-1.55
			l-0.22-0.83h-0.02C35.08,23.18,35.01,23.46,34.95,23.65z"/>
		<path class="st1" d="M37.69,27.17c0.01-0.31,0.08-0.6,0.22-0.87c0.14-0.27,0.28-0.49,0.44-0.66c0.16-0.17,0.35-0.34,0.58-0.52
			c0.08-0.07,0.21-0.16,0.38-0.29c0.17-0.13,0.3-0.22,0.39-0.29c0.09-0.07,0.18-0.16,0.29-0.27c0.11-0.11,0.18-0.22,0.23-0.33
			c0.05-0.11,0.07-0.23,0.07-0.36c0-0.25-0.06-0.44-0.19-0.59c-0.13-0.15-0.3-0.22-0.53-0.22c-0.26,0-0.47,0.09-0.61,0.27
			c-0.15,0.18-0.22,0.44-0.23,0.77h-0.96c0-0.6,0.15-1.07,0.46-1.41c0.31-0.34,0.76-0.51,1.37-0.51c0.54,0,0.97,0.16,1.28,0.47
			c0.31,0.32,0.47,0.71,0.47,1.17c0,0.23-0.03,0.44-0.1,0.63c-0.07,0.19-0.17,0.36-0.32,0.52c-0.15,0.16-0.28,0.28-0.39,0.37
			c-0.12,0.09-0.28,0.2-0.48,0.34c-0.56,0.36-0.91,0.67-1.04,0.92h2.38v0.84H37.69z"/>
	</g>
	<path class="st0" d="M44.3,0.02h-44H0v0.3v60.91v0.3h0.3h12.21h8.69h6.19H44.3h0.3v-0.3V38.16v-8.64V17.38V0.33v-0.3H44.3z
		 M42.62,39.84v19.72H29.07V39.84H42.62z M42.62,31.2v6.66H27.39h-0.3v0.3v21.4h-4.2V31.2H42.62z M42.62,19.06v10.16H21.2h-0.3v0.3
		v30.04h-6.71V19.06H42.62z M1.98,59.55V2.01h40.64v15.07H12.51h-0.3v0.3v42.18H1.98z"/>
</g>
</svg>
