<?xml version="1.0" encoding="utf-8"?>
<!-- Generator: Adobe Illustrator 27.0.0, SVG Export Plug-In . SVG Version: 6.00 Build 0)  -->
<svg version="1.1" id="Layer_1" xmlns="http://www.w3.org/2000/svg" xmlns:xlink="http://www.w3.org/1999/xlink" x="0px" y="0px"
	 viewBox="0 0 63.5 87.6" style="enable-background:new 0 0 63.5 87.6;" xml:space="preserve">
<style type="text/css">
	.st0{fill:#ED2447;}
</style>
<path class="st0" d="M63.1,0H0.4H0v0.4v86.7v0.4h0.4h17.4h12.4H39h24.1h0.4v-0.4V54.3V42V24.7V0.4V0L63.1,0L63.1,0z M60.7,56.7v28.1
	H41.4V56.7H60.7z M60.7,44.4v9.5H39h-0.4v0.4v30.5h-6V44.4H60.7z M60.7,27.1v14.5H30.2h-0.4V42v42.8h-9.6V27.1H60.7z M2.8,84.8V2.8
	h57.9v21.5H17.8h-0.4v0.4v60.1L2.8,84.8L2.8,84.8z"/>
</svg>
