<?xml version="1.0" encoding="utf-8"?>
<!-- Generator: Adobe Illustrator 27.0.0, SVG Export Plug-In . SVG Version: 6.00 Build 0)  -->
<svg version="1.1" id="Layer_1" xmlns="http://www.w3.org/2000/svg" xmlns:xlink="http://www.w3.org/1999/xlink" x="0px" y="0px"
	 viewBox="0 0 140 62.26" style="enable-background:new 0 0 140 62.26;" xml:space="preserve">
<style type="text/css">
	.st0{fill:#ED2447;}
	.st1{fill:#FFFFFF;}
</style>
<g>
	<g>
		<path class="st1" d="M32.75,27.17l1.87-5.38h1.13l1.9,5.38h-1.14l-0.36-1.14h-1.94l-0.35,1.14H32.75z M34.95,23.65l-0.48,1.55h1.42l-0.48-1.55
			l-0.22-0.83h-0.02C35.08,23.18,35.01,23.46,34.95,23.65z"/>
		<path class="st1" d="M37.69,27.17c0.01-0.31,0.08-0.6,0.22-0.87c0.14-0.27,0.28-0.49,0.44-0.66c0.16-0.17,0.35-0.34,0.58-0.52
			c0.08-0.07,0.21-0.16,0.38-0.29c0.17-0.13,0.3-0.22,0.39-0.29c0.09-0.07,0.18-0.16,0.29-0.27c0.11-0.11,0.18-0.22,0.23-0.33
			c0.05-0.11,0.07-0.23,0.07-0.36c0-0.25-0.06-0.44-0.19-0.59c-0.13-0.15-0.3-0.22-0.53-0.22c-0.26,0-0.47,0.09-0.61,0.27
			c-0.15,0.18-0.22,0.44-0.23,0.77h-0.96c0-0.6,0.15-1.07,0.46-1.41c0.31-0.34,0.76-0.51,1.37-0.51c0.54,0,0.97,0.16,1.28,0.47
			c0.31,0.32,0.47,0.71,0.47,1.17c0,0.23-0.03,0.44-0.1,0.63c-0.07,0.19-0.17,0.36-0.32,0.52c-0.15,0.16-0.28,0.28-0.39,0.37
			c-0.12,0.09-0.28,0.2-0.48,0.34c-0.56,0.36-0.91,0.67-1.04,0.92h2.38v0.84H37.69z"/>
	</g>
	<path class="st0" d="M44.3,0.02h-44H0v0.3v60.91v0.3h0.3h12.21h8.69h6.19H44.3h0.3v-0.3V38.16v-8.64V17.38V0.33v-0.3H44.3z
		 M42.62,39.84v19.72H29.07V39.84H42.62z M42.62,31.2v6.66H27.39h-0.3v0.3v21.4h-4.2V31.2H42.62z M42.62,19.06v10.16H21.2h-0.3v0.3
		v30.04h-6.71V19.06H42.62z M1.98,59.55V2.01h40.64v15.07H12.51h-0.3v0.3v42.18H1.98z"/>
</g>
</svg>
