<?xml version="1.0" encoding="utf-8"?>
<!-- Generator: Adobe Illustrator 25.0.0, SVG Export Plug-In . SVG Version: 6.00 Build 0)  -->
<svg version="1.1" id="Layer_1" xmlns="http://www.w3.org/2000/svg" xmlns:xlink="http://www.w3.org/1999/xlink" x="0px" y="0px"
	 viewBox="0 0 99.9 160.4" style="enable-background:new 0 0 99.9 160.4;" xml:space="preserve">
<style type="text/css">
	.st0{fill:#E50036;}
</style>
<path id="Path_11" class="st0" d="M0,157v-14h5.4c1.7-0.1,3.4,0.7,4.4,2c1.2,1.4,1.8,3.3,1.7,5.1c0.1,2.1-0.7,4.1-2.2,5.5
	c-1.2,0.9-2.6,1.4-4.1,1.3L0,157z M2.8,154.5H5c1.1,0.1,2.1-0.3,2.8-1.1c0.6-1,1-2.1,0.9-3.3c0.1-1.2-0.3-2.4-0.9-3.4
	c-0.6-0.9-1.6-1.3-2.7-1.3H2.8V154.5z"/>
<path id="Path_12" class="st0" d="M12.4,143h2.7v2.4h-2.7V143z M12.4,147h2.7v10h-2.7V147z"/>
<path id="Path_13" class="st0" d="M20.7,160.4c-1.1,0.1-2.3-0.2-3.2-0.8c-0.8-0.5-1.3-1.4-1.4-2.3h2.6c0.3,0.7,0.9,1.1,2,1.1
	c1.5,0,2.2-0.7,2.2-2.1v-1.1h-0.1c-0.7,0.8-1.6,1.2-2.6,1.2c-1.2,0-2.3-0.5-3.1-1.3c-0.9-0.9-1.4-2.2-1.3-3.5
	c-0.1-1.3,0.4-2.6,1.2-3.6c0.8-0.9,1.9-1.4,3.1-1.3c1.1-0.1,2.1,0.4,2.8,1.3h0V147h2.6v9.3c0.1,1.1-0.4,2.3-1.2,3
	C23.3,160.1,22,160.5,20.7,160.4 M20.7,154.2c0.7,0,1.3-0.2,1.8-0.8c0.4-0.6,0.6-1.3,0.6-2c0-0.7-0.2-1.4-0.6-1.9
	c-0.4-0.5-1.1-0.8-1.8-0.8c-0.6,0-1.2,0.3-1.6,0.7c-0.4,0.6-0.7,1.3-0.6,2c0,0.7,0.2,1.4,0.6,2C19.4,154,20,154.3,20.7,154.2"/>
<path id="Path_14" class="st0" d="M26.7,143h2.7v2.4h-2.7V143z M26.7,147h2.7v10h-2.7V147z"/>
<path id="Path_15" class="st0" d="M30,148.7V147h1.4v-3.1H34v3.1h1.7v1.8H34v5.3c-0.1,0.5,0.3,0.9,0.7,1c0.1,0,0.2,0,0.3,0l0.8,0v2
	c-0.4,0-1,0-1.7,0c-0.7,0-1.4-0.2-1.9-0.6c-0.6-0.4-0.8-1.1-0.8-1.8v-5.9L30,148.7z"/>
<path id="Path_16" class="st0" d="M43,157c-0.2-0.3-0.3-0.7-0.3-1.1h0c-0.3,0.4-0.7,0.8-1.1,1c-0.6,0.3-1.2,0.4-1.9,0.4
	c-0.9,0-1.8-0.2-2.5-0.8c-0.7-0.6-1-1.4-1-2.3c-0.1-0.9,0.3-1.7,1.1-2.2c0.9-0.5,1.9-0.9,3-1c0.6-0.1,1.3-0.2,1.9-0.4
	c0.3-0.1,0.5-0.4,0.5-0.7c0-0.3-0.2-0.7-0.4-0.9c-0.4-0.2-0.8-0.4-1.2-0.3c-1.2,0-1.9,0.5-1.9,1.4h-2.4c0-0.9,0.4-1.8,1.2-2.4
	c0.9-0.7,2-1,3.2-0.9c2.8,0,4.2,1.2,4.2,3.7v5.1c0,0.8,0.1,1.2,0.4,1.4v0.1L43,157z M40.4,155.3c0.6,0,1.2-0.2,1.7-0.6
	c0.4-0.3,0.6-0.8,0.6-1.3v-1.5c-0.6,0.3-1.2,0.5-1.9,0.6c-0.6,0.1-1.1,0.3-1.6,0.6c-0.3,0.2-0.5,0.6-0.5,1
	C38.8,154.9,39.3,155.3,40.4,155.3"/>
<rect id="Rectangle_9" x="46.5" y="143" class="st0" width="2.7" height="14"/>
<path id="Path_17" class="st0" d="M56.5,157l-4.1-14h2.9l1.8,6.9l0.6,3h0c0.2-1.2,0.4-2.1,0.6-3l1.5-7h2.7l1.5,7l0.6,3h0
	c0.3-1.2,0.5-2.3,0.7-3.1l1.8-6.9h2.8l-4,14h-2.6l-1.7-7.5l-0.5-2.5h0c-0.1,1-0.3,1.8-0.4,2.5l-1.7,7.5L56.5,157z"/>
<path id="Path_18" class="st0" d="M78,155.7c-2.1,2-5.4,2-7.5,0c-2-2.1-2-5.4,0-7.6c2.1-2,5.4-2,7.5,0C80,150.3,80,153.6,78,155.7
	 M74.2,155.2c0.7,0,1.4-0.3,1.9-0.9c0.5-0.7,0.7-1.5,0.7-2.4c0-0.8-0.2-1.7-0.7-2.4c-0.8-1-2.3-1.2-3.4-0.4
	c-0.1,0.1-0.3,0.2-0.4,0.4c-0.9,1.5-0.9,3.3,0,4.8C72.8,154.9,73.5,155.3,74.2,155.2"/>
<path id="Path_19" class="st0" d="M82.8,147v1.6h0.1c0.2-0.5,0.6-0.9,1-1.3c0.4-0.3,0.9-0.4,1.4-0.4c0.2,0,0.4,0,0.6,0.1v2.3h-0.1
	c-0.8-0.1-1.6,0.1-2.2,0.6c-0.6,0.6-0.9,1.4-0.8,2.3v4.9h-2.7v-10H82.8z"/>
<rect id="Rectangle_10" x="86.6" y="143" class="st0" width="2.7" height="14"/>
<path id="Path_20" class="st0" d="M94.3,157.3c-1.2,0-2.3-0.5-3.1-1.4c-0.8-1.1-1.2-2.5-1.2-3.9c-0.1-1.4,0.4-2.7,1.2-3.8
	c0.7-1,1.9-1.5,3.1-1.5c1.1-0.1,2.2,0.5,2.8,1.5h0.1V143h2.7v14h-2.6v-1.3h0C96.6,156.7,95.5,157.3,94.3,157.3 M94.9,155
	c0.7,0,1.4-0.3,1.8-0.8c0.4-0.6,0.7-1.4,0.6-2.2c0-2.1-0.8-3.2-2.3-3.2c-0.7,0-1.3,0.3-1.6,0.9c-0.4,0.7-0.6,1.5-0.6,2.3
	c0,0.8,0.1,1.6,0.6,2.3C93.6,154.8,94.2,155.1,94.9,155"/>
<path id="Path_21" class="st0" d="M73.6,62l4.2-12.2h2.6L84.8,62h-2.6l-0.8-2.6H77L76.2,62H73.6z M78.6,54l-1.1,3.5h3.2L79.7,54
	l-0.5-1.9h0C78.9,53,78.8,53.6,78.6,54"/>
<path id="Path_22" class="st0" d="M84.9,62c0-0.7,0.2-1.4,0.5-2c0.3-0.5,0.6-1,1-1.5c0.4-0.4,0.9-0.8,1.3-1.2
	c0.2-0.1,0.5-0.4,0.9-0.6c0.4-0.3,0.7-0.5,0.9-0.7c0.2-0.2,0.4-0.4,0.7-0.6c0.2-0.2,0.4-0.5,0.5-0.8c0.1-0.3,0.2-0.5,0.2-0.8
	c0-0.5-0.1-1-0.4-1.3c-0.3-0.3-0.7-0.5-1.2-0.5c-0.5,0-1.1,0.2-1.4,0.6c-0.4,0.5-0.6,1.1-0.5,1.8H85c-0.1-1.2,0.3-2.3,1.1-3.2
	c0.8-0.8,1.9-1.2,3.1-1.2c1.1-0.1,2.1,0.3,2.9,1.1c0.7,0.7,1.1,1.7,1.1,2.7c0,0.5-0.1,1-0.2,1.4c-0.2,0.4-0.4,0.8-0.7,1.2
	c-0.3,0.3-0.6,0.6-0.9,0.8c-0.3,0.2-0.6,0.5-1.1,0.8c-0.9,0.5-1.7,1.2-2.4,2.1h5.4V62H84.9z"/>
<path id="Path_23" class="st0" d="M99.9,138.2H0V0h99.9V138.2z M3.1,135.1h93.6V3.1H3.1V135.1z"/>
<path id="Path_24" class="st0" d="M99.9,138.2H27.7V38.7h72.1V138.2z M30.8,135.1h65.9V41.8H30.8V135.1z"/>
<path id="Path_25" class="st0" d="M99.9,138.2H47.4v-72h52.4V138.2z M50.6,135.1h46.2V69.4H50.6V135.1z"/>
<path id="Path_26" class="st0" d="M99.9,138.2H61.5V85.9h38.4L99.9,138.2z M64.6,135.1h32.1V89H64.6L64.6,135.1z"/>
</svg>
