<svg id="Layer_1" data-name="Layer 1" xmlns="http://www.w3.org/2000/svg" viewBox="0 0 244.53 152.83"><defs><style>.cls-1{fill:#010101;}</style></defs>
<path id="Path_21" data-name="Path 21" class="cls-1" d="M160.09,451.65l53.24-152.83H245.4l53.87,152.83H267l-10.28-32.57H202.06l-10,32.57Zm62.64-100.21-13.66,44.09h40.34L235.5,351.44l-6.13-23.56h0c-2.51,10.28-4.64,18.17-6.39,23.56" transform="translate(-160.09 -298.82)"/><path id="Path_22" data-name="Path 22" class="cls-1" d="M300.52,451.65a59,59,0,0,1,6.26-25,77.62,77.62,0,0,1,12.53-18.67,156.58,156.58,0,0,1,16.53-14.78l10.9-8.14q7.27-5.26,10.9-8.27a86.61,86.61,0,0,0,8.27-7.64,27,27,0,0,0,6.51-9.4,25.77,25.77,0,0,0,2-10.14A25.09,25.09,0,0,0,369,332.9a18.79,18.79,0,0,0-15-6.27,21.67,21.67,0,0,0-17.41,7.77A35.49,35.49,0,0,0,330,356.45H302.27a57.28,57.28,0,0,1,12.53-40.09,57.49,57.49,0,0,1,75.16-1,45.58,45.58,0,0,1,13.4,33.32,54,54,0,0,1-2.88,17.91,43.68,43.68,0,0,1-9.14,14.66,88.5,88.5,0,0,1-11.15,10.4c-3.26,2.63-7.77,5.76-13.65,9.64a87.71,87.71,0,0,0-29.44,26.06h67.52v24.3Z" transform="translate(-160.09 -298.82)"/></svg>
